HIERARCHY
ROOT pelvis
{
  OFFSET 0 100 0
  CHANNELS 6 Xposition Yposition Zposition Zrotation Xrotation Yrotation
  JOINT pelvis_right_femur
  {
    OFFSET -10.78128 -3.44521 -0.5502486
    CHANNELS 3 Zrotation Xrotation Yrotation
    JOINT right_femur_tibia
    {
      OFFSET -0.8047443 -44.0398 -0.1307829
      CHANNELS 3 Zrotation Xrotation Yrotation
      JOINT right_tibia_foot
      {
        OFFSET 3.006224 -47.83518 -5
        CHANNELS 3 Zrotation Xrotation Yrotation
        End Site
        {
          OFFSET 0 -5 15
        }
      }
    }
  }
  JOINT pelvis_left_femur
  {
    OFFSET 10.78128 -3.44521 -0.5502486
    CHANNELS 3 Zrotation Xrotation Yrotation
    JOINT left_femur_tibia
    {
      OFFSET 0.8047443 -44.0398 -0.1307829
      CHANNELS 3 Zrotation Xrotation Yrotation
      JOINT left_tibia_foot
      {
        OFFSET -4.370144 -48.10324 -4.275266
        CHANNELS 3 Zrotation Xrotation Yrotation
        End Site
        {
          OFFSET 0 -5 15
        }
      }
    }
  }
  JOINT pelvis_spine1
  {
    OFFSET 0 6.468898 -3.129235
    CHANNELS 3 Zrotation Xrotation Yrotation
    JOINT spine1
    {
      OFFSET 0 23.15396 4.99043
      CHANNELS 3 Zrotation Xrotation Yrotation
      JOINT spine2
      {
        OFFSET 0 20.79997 -5.064912
        CHANNELS 3 Zrotation Xrotation Yrotation
        JOINT neck
        {
          OFFSET 0 14.38658 9.616178
          CHANNELS 3 Zrotation Xrotation Yrotation
          End Site
          {
            OFFSET 0 20 0
          }
        }
      }
      JOINT right_manubrium
      {
        OFFSET -5.722621 16.35077 3.967754
        CHANNELS 3 Zrotation Xrotation Yrotation
        JOINT right_clavicle
        {
          OFFSET -13.16364 1.694482 -4.693211
          CHANNELS 3 Zrotation Xrotation Yrotation
          JOINT right_humerus
          {
            OFFSET -28.5034 -0.3100689 -2.792744
            CHANNELS 3 Zrotation Xrotation Yrotation
            JOINT right_radius
            {
              OFFSET -25.15693 0.02248979 -1.271978
              CHANNELS 3 Zrotation Xrotation Yrotation
              End Site
              {
                OFFSET -15 0 0
              }
            }
          }
        }
      }
      JOINT left_manubrium
      {
        OFFSET 5.722621 16.35077 3.967754
        CHANNELS 3 Zrotation Xrotation Yrotation
        JOINT left_clavicle
        {
          OFFSET 13.16364 1.694482 -4.693211
          CHANNELS 3 Zrotation Xrotation Yrotation
          JOINT left_humerus
          {
            OFFSET 29.39168 -1.063119 -2.237045
            CHANNELS 3 Zrotation Xrotation Yrotation
            JOINT left_radius
            {
              OFFSET 24.59957 -0.9528479 0.9047498
              CHANNELS 3 Zrotation Xrotation Yrotation
              End Site
              {
                OFFSET 15 -0 -0
              }
            }
          }
        }
      }
    }
  }
}
MOTION
Frames: 19
Frame Time: 0.0416666666667
-1396.513 103.3698 340.1835 3.331263 10.07468 168.2228 7.56773 12.90975 4.558598 -0 26.32512 -0 -11.92481 -16.90386 -6.340291 4.726599 -16.5998 -1.94058 -0 21.48139 -0 9.245889 3.953818 13.22019 2.072745 -4.602069 9.052045 0.9171209 17.54827 -8.367964 0.1577749 18.01518 0.5692778 -1.047305 -17.02835 3.008539 -3.029575 -34.51336 12.85851 92.02501 18.14717 -11.73958 -0 0 33.41829 -18.37106 17.9412 11.07876 -1.347984 -23.07878 -9.702851 -93.28193 5.09216 43.6913 0 0 -6.717007 9.147794 15.15952 1.918993
-1396.631 103.3701 335.2372 3.403064 10.05087 167.8118 7.56773 12.90975 4.558598 -0 26.32512 -0 -11.92481 -16.90386 -6.340291 4.726599 -16.5998 -1.94058 -0 21.48139 -0 9.245889 3.953818 13.22019 2.072745 -4.602069 9.052045 0.9171209 17.54827 -8.367964 0.1577749 18.01518 0.5692778 -1.047305 -17.02835 3.008539 -3.029575 -34.51336 12.85851 92.02501 18.14717 -11.73958 -0 0 33.41829 -18.37106 17.9412 11.07876 -1.347984 -23.07878 -9.702851 -93.28193 5.09216 43.6913 0 0 -6.717007 9.147794 15.15952 1.918993
-1396.715 103.3704 330.2902 3.474685 10.02656 167.401 7.56773 12.90975 4.558598 -0 26.32512 -0 -11.92481 -16.90386 -6.340291 4.726599 -16.5998 -1.94058 -0 21.48139 -0 9.245889 3.953818 13.22019 2.072745 -4.602069 9.052045 0.9171209 17.54827 -8.367964 0.1577749 18.01518 0.5692778 -1.047305 -17.02835 3.008539 -3.029575 -34.51336 12.85851 92.02501 18.14717 -11.73958 -0 0 33.41829 -18.37106 17.9412 11.07876 -1.347984 -23.07878 -9.702851 -93.28193 5.09216 43.6913 0 0 -6.717007 9.147794 15.15952 1.918993
-1396.763 103.3706 325.3427 3.546121 10.00174 166.9901 7.56773 12.90975 4.558598 -0 26.32512 -0 -11.92481 -16.90386 -6.340291 4.726599 -16.5998 -1.94058 -0 21.48139 -0 9.245889 3.953818 13.22019 2.072745 -4.602069 9.052045 0.9171209 17.54827 -8.367964 0.1577749 18.01518 0.5692778 -1.047305 -17.02835 3.008539 -3.029575 -34.51336 12.85851 92.02501 18.14717 -11.73958 -0 0 33.41829 -18.37106 17.9412 11.07876 -1.347984 -23.07878 -9.702851 -93.28193 5.09216 43.6913 0 0 -6.717007 9.147794 15.15952 1.918993
-1396.776 103.3709 320.395 3.617369 9.976421 166.5794 7.56773 12.90975 4.558598 -0 26.32512 -0 -11.92481 -16.90386 -6.340291 4.726599 -16.5998 -1.94058 -0 21.48139 -0 9.245889 3.953818 13.22019 2.072745 -4.602069 9.052045 0.9171209 17.54827 -8.367964 0.1577749 18.01518 0.5692778 -1.047305 -17.02835 3.008539 -3.029575 -34.51336 12.85851 92.02501 18.14717 -11.73958 -0 0 33.41829 -18.37106 17.9412 11.07876 -1.347984 -23.07878 -9.702851 -93.28193 5.09216 43.6913 0 0 -6.717007 9.147794 15.15952 1.918993
-1396.755 103.3712 315.4473 3.688426 9.950598 166.1687 7.56773 12.90975 4.558598 -0 26.32512 -0 -11.92481 -16.90386 -6.340291 4.726599 -16.5998 -1.94058 -0 21.48139 -0 9.245889 3.953818 13.22019 2.072745 -4.602069 9.052045 0.9171209 17.54827 -8.367964 0.1577749 18.01518 0.5692778 -1.047305 -17.02835 3.008539 -3.029575 -34.51336 12.85851 92.02501 18.14717 -11.73958 -0 0 33.41829 -18.37106 17.9412 11.07876 -1.347984 -23.07878 -9.702851 -93.28193 5.09216 43.6913 0 0 -6.717007 9.147794 15.15952 1.918993
-1396.698 103.3715 310.4999 3.759287 9.924274 165.7581 7.56773 12.90975 4.558598 -0 26.32512 -0 -11.92481 -16.90386 -6.340291 4.726599 -16.5998 -1.94058 -0 21.48139 -0 9.245889 3.953818 13.22019 2.072745 -4.602069 9.052045 0.9171209 17.54827 -8.367964 0.1577749 18.01518 0.5692778 -1.047305 -17.02835 3.008539 -3.029575 -34.51336 12.85851 92.02501 18.14717 -11.73958 -0 0 33.41829 -18.37106 17.9412 11.07876 -1.347984 -23.07878 -9.702851 -93.28193 5.09216 43.6913 0 0 -6.717007 9.147794 15.15952 1.918993
-1396.607 103.3718 305.5531 3.829949 9.89745 165.3476 7.56773 12.90975 4.558598 -0 26.32512 -0 -11.92481 -16.90386 -6.340291 4.726599 -16.5998 -1.94058 -0 21.48139 -0 9.245889 3.953818 13.22019 2.072745 -4.602069 9.052045 0.9171209 17.54827 -8.367964 0.1577749 18.01518 0.5692778 -1.047305 -17.02835 3.008539 -3.029575 -34.51336 12.85851 92.02501 18.14717 -11.73958 -0 0 33.41829 -18.37106 17.9412 11.07876 -1.347984 -23.07878 -9.702851 -93.28193 5.09216 43.6913 0 0 -6.717007 9.147794 15.15952 1.918993
-1396.48 103.3721 300.607 3.900408 9.870129 164.9371 7.56773 12.90975 4.558598 -0 26.32512 -0 -11.92481 -16.90386 -6.340291 4.726599 -16.5998 -1.94058 -0 21.48139 -0 9.245889 3.953818 13.22019 2.072745 -4.602069 9.052045 0.9171209 17.54827 -8.367964 0.1577749 18.01518 0.5692778 -1.047305 -17.02835 3.008539 -3.029575 -34.51336 12.85851 92.02501 18.14717 -11.73958 -0 0 33.41829 -18.37106 17.9412 11.07876 -1.347984 -23.07878 -9.702851 -93.28193 5.09216 43.6913 0 0 -6.717007 9.147794 15.15952 1.918993
-1396.319 103.3723 295.6619 3.970661 9.842311 164.5267 7.56773 12.90975 4.558598 -0 26.32512 -0 -11.92481 -16.90386 -6.340291 4.726599 -16.5998 -1.94058 -0 21.48139 -0 9.245889 3.953818 13.22019 2.072745 -4.602069 9.052045 0.9171209 17.54827 -8.367964 0.1577749 18.01518 0.5692778 -1.047305 -17.02835 3.008539 -3.029575 -34.51336 12.85851 92.02501 18.14717 -11.73958 -0 0 33.41829 -18.37106 17.9412 11.07876 -1.347984 -23.07878 -9.702851 -93.28193 5.09216 43.6913 0 0 -6.717007 9.147794 15.15952 1.918993
-1396.122 103.3726 290.7181 4.040704 9.813997 164.1163 7.56773 12.90975 4.558598 -0 26.32512 -0 -11.92481 -16.90386 -6.340291 4.726599 -16.5998 -1.94058 -0 21.48139 -0 9.245889 3.953818 13.22019 2.072745 -4.602069 9.052045 0.9171209 17.54827 -8.367964 0.1577749 18.01518 0.5692778 -1.047305 -17.02835 3.008539 -3.029575 -34.51336 12.85851 92.02501 18.14717 -11.73958 -0 0 33.41829 -18.37106 17.9412 11.07876 -1.347984 -23.07878 -9.702851 -93.28193 5.09216 43.6913 0 0 -6.717007 9.147794 15.15952 1.918993
-1395.891 103.3729 285.7758 4.110533 9.785191 163.7061 7.56773 12.90975 4.558598 -0 26.32512 -0 -11.92481 -16.90386 -6.340291 4.726599 -16.5998 -1.94058 -0 21.48139 -0 9.245889 3.953818 13.22019 2.072745 -4.602069 9.052045 0.9171209 17.54827 -8.367964 0.1577749 18.01518 0.5692778 -1.047305 -17.02835 3.008539 -3.029575 -34.51336 12.85851 92.02501 18.14717 -11.73958 -0 0 33.41829 -18.37106 17.9412 11.07876 -1.347984 -23.07878 -9.702851 -93.28193 5.09216 43.6913 0 0 -6.717007 9.147794 15.15952 1.918993
-1395.624 103.3732 280.8352 4.180146 9.755892 163.2959 7.56773 12.90975 4.558598 -0 26.32512 -0 -11.92481 -16.90386 -6.340291 4.726599 -16.5998 -1.94058 -0 21.48139 -0 9.245889 3.953818 13.22019 2.072745 -4.602069 9.052045 0.9171209 17.54827 -8.367964 0.1577749 18.01518 0.5692778 -1.047305 -17.02835 3.008539 -3.029575 -34.51336 12.85851 92.02501 18.14717 -11.73958 -0 0 33.41829 -18.37106 17.9412 11.07876 -1.347984 -23.07878 -9.702851 -93.28193 5.09216 43.6913 0 0 -6.717007 9.147794 15.15952 1.918993
-1395.323 103.3735 275.8967 4.249537 9.726103 162.8857 7.56773 12.90975 4.558598 -0 26.32512 -0 -11.92481 -16.90386 -6.340291 4.726599 -16.5998 -1.94058 -0 21.48139 -0 9.245889 3.953818 13.22019 2.072745 -4.602069 9.052045 0.9171209 17.54827 -8.367964 0.1577749 18.01518 0.5692778 -1.047305 -17.02835 3.008539 -3.029575 -34.51336 12.85851 92.02501 18.14717 -11.73958 -0 0 33.41829 -18.37106 17.9412 11.07876 -1.347984 -23.07878 -9.702851 -93.28193 5.09216 43.6913 0 0 -6.717007 9.147794 15.15952 1.918993
-1394.986 103.3738 270.9604 4.318704 9.695826 162.4757 7.56773 12.90975 4.558598 -0 26.32512 -0 -11.92481 -16.90386 -6.340291 4.726599 -16.5998 -1.94058 -0 21.48139 -0 9.245889 3.953818 13.22019 2.072745 -4.602069 9.052045 0.9171209 17.54827 -8.367964 0.1577749 18.01518 0.5692778 -1.047305 -17.02835 3.008539 -3.029575 -34.51336 12.85851 92.02501 18.14717 -11.73958 -0 0 33.41829 -18.37106 17.9412 11.07876 -1.347984 -23.07878 -9.702851 -93.28193 5.09216 43.6913 0 0 -6.717007 9.147794 15.15952 1.918993
-1394.615 103.374 266.0266 4.387643 9.665061 162.0657 7.56773 12.90975 4.558598 -0 26.32512 -0 -11.92481 -16.90386 -6.340291 4.726599 -16.5998 -1.94058 -0 21.48139 -0 9.245889 3.953818 13.22019 2.072745 -4.602069 9.052045 0.9171209 17.54827 -8.367964 0.1577749 18.01518 0.5692778 -1.047305 -17.02835 3.008539 -3.029575 -34.51336 12.85851 92.02501 18.14717 -11.73958 -0 0 33.41829 -18.37106 17.9412 11.07876 -1.347984 -23.07878 -9.702851 -93.28193 5.09216 43.6913 0 0 -6.717007 9.147794 15.15952 1.918993
-1394.209 103.3743 261.0956 4.456351 9.63381 161.6558 7.56773 12.90975 4.558598 -0 26.32512 -0 -11.92481 -16.90386 -6.340291 4.726599 -16.5998 -1.94058 -0 21.48139 -0 9.245889 3.953818 13.22019 2.072745 -4.602069 9.052045 0.9171209 17.54827 -8.367964 0.1577749 18.01518 0.5692778 -1.047305 -17.02835 3.008539 -3.029575 -34.51336 12.85851 92.02501 18.14717 -11.73958 -0 0 33.41829 -18.37106 17.9412 11.07876 -1.347984 -23.07878 -9.702851 -93.28193 5.09216 43.6913 0 0 -6.717007 9.147794 15.15952 1.918993
-1393.768 103.3746 256.1676 4.524824 9.602077 161.246 7.56773 12.90975 4.558598 -0 26.32512 -0 -11.92481 -16.90386 -6.340291 4.726599 -16.5998 -1.94058 -0 21.48139 -0 9.245889 3.953818 13.22019 2.072745 -4.602069 9.052045 0.9171209 17.54827 -8.367964 0.1577749 18.01518 0.5692778 -1.047305 -17.02835 3.008539 -3.029575 -34.51336 12.85851 92.02501 18.14717 -11.73958 -0 0 33.41829 -18.37106 17.9412 11.07876 -1.347984 -23.07878 -9.702851 -93.28193 5.09216 43.6913 0 0 -6.717007 9.147794 15.15952 1.918993
-1393.292 103.3749 251.2428 4.593059 9.569861 160.8362 7.56773 12.90975 4.558598 -0 26.32512 -0 -11.92481 -16.90386 -6.340291 4.726599 -16.5998 -1.94058 -0 21.48139 -0 9.245889 3.953818 13.22019 2.072745 -4.602069 9.052045 0.9171209 17.54827 -8.367964 0.1577749 18.01518 0.5692778 -1.047305 -17.02835 3.008539 -3.029575 -34.51336 12.85851 92.02501 18.14717 -11.73958 -0 0 33.41829 -18.37106 17.9412 11.07876 -1.347984 -23.07878 -9.702851 -93.28193 5.09216 43.6913 0 0 -6.717007 9.147794 15.15952 1.918993
